<svg xmlns="http://www.w3.org/2000/svg" xmlns:xlink="http://www.w3.org/1999/xlink" version="1.1" x="0px" y="0px" viewBox="0 0 100 125" style="enable-background:new 0 0 100 100;" xml:space="preserve"><g><path d="M24.94,18H74.9c4.473,0,8.1,3.626,8.1,8.1v27.12L71.02,41.23c-2.1-2.09-5.51-2.09-7.61,0l-8.49,8.49l2.13,2.13l8.48-8.49   c0.93-0.93,2.44-0.93,3.36,0L83,57.46v18.6c0,0.55-0.05,1.08-0.15,1.59l2.41,2.41c0.48-1.24,0.74-2.59,0.74-4V26.1   C86,19.97,81.03,15,74.9,15H24.94c-1.41,0-2.76,0.26-4,0.74l2.41,2.41C23.86,18.05,24.39,18,24.94,18z"/><path d="M76.21,30.27c0-3.21-2.61-5.83-5.83-5.83c-3.21,0-5.82,2.62-5.82,5.83s2.61,5.82,5.82,5.82   C73.6,36.09,76.21,33.48,76.21,30.27z M67.56,30.27c0-1.56,1.27-2.83,2.82-2.83c1.56,0,2.83,1.27,2.83,2.83   c0,1.55-1.27,2.82-2.83,2.82C68.83,33.09,67.56,31.82,67.56,30.27z"/><path d="M91.14,89.86l-1.06-1.06l0,0l-6.19-6.19l-2.14-2.14L54.92,53.64l-3.78-3.78l-3.31-3.31l-27.3-27.3l-2.14-2.14l-7.188-7.188   c-0.509-0.509-1.323-0.667-1.925-0.271C8.44,10.202,8.354,11.314,9.02,11.98l1.06,1.06l0,0l6.19,6.19   c-0.63,0.82-1.15,1.73-1.53,2.71c-0.48,1.24-0.74,2.59-0.74,4V75.9C14,82.03,18.97,87,25.1,87h49.96c1.41,0,2.76-0.26,4-0.74   c0.98-0.38,1.89-0.9,2.71-1.53h0l7.25,7.25c0.29,0.29,0.68,0.44,1.06,0.44s0.77-0.15,1.06-0.44   C91.73,91.39,91.73,90.45,91.14,89.86z M18.41,21.45L42.3,45.34c-0.58,0.19-1.13,0.49-1.63,0.89l-0.96,0.76L17,65.17V26.02   c0-0.55,0.05-1.08,0.15-1.59C17.37,23.34,17.81,22.33,18.41,21.45z M76.65,83.85c-0.51,0.1-1.04,0.15-1.59,0.15H25.1   c-4.473,0-8.1-3.626-8.1-8.1v-6.98l24.85-19.87l0.69-0.55c0.951-0.758,2.319-0.681,3.179,0.179l3.301,3.301l0.9,0.9l16.39,16.39   l13.32,13.32C78.75,83.19,77.74,83.63,76.65,83.85z"/></g><text x="0" y="115" fill="#000000" font-size="5px" font-weight="bold" font-family="'Helvetica Neue', Helvetica, Arial-Unicode, Arial, Sans-serif">Created by ims.icon</text><text x="0" y="120" fill="#000000" font-size="5px" font-weight="bold" font-family="'Helvetica Neue', Helvetica, Arial-Unicode, Arial, Sans-serif">from the Noun Project</text></svg>